<svg id="Capa_1" enable-background="new 0 0 511.991 511.991" height="512" viewBox="0 0 511.991 511.991" width="512" xmlns="http://www.w3.org/2000/svg"><g><path d="m240.995 511.991h30c41.355 0 74.99-33.635 74.99-74.99v-60.848c.003-23.042 8.905-43.578 24.405-56.343 41.693-34.337 65.605-84.931 65.605-138.811 0-99.61-80.624-180.999-180-180.999-101.032 0-180.563 82.096-179.996 182.037.298 52.714 23.657 102.469 64.084 136.51 16.467 13.866 25.912 34.396 25.912 56.326v62.128c0 41.355 33.645 74.99 75 74.99zm30-29.99h-30c-24.813 0-45.01-20.187-45.01-45v-15.001h120.01v15.001c0 24.813-20.187 45-45 45zm-111.589-186.403c-33.693-28.369-53.159-69.822-53.408-113.731-.469-82.876 65.161-151.867 149.997-151.867 82.903 0 150 68.079 150 150.999 0 44.883-19.929 87.037-54.676 115.654-22.444 18.483-35.319 47.458-35.324 79.498v15.849h-120.01v-17.126c0-30.801-13.326-59.696-36.579-79.276z"/><path d="m240.995 286c0 6.957 4.783 13 11.554 14.599 6.755 1.595 13.745-1.654 16.863-7.89l60-120c2.325-4.65 2.076-10.172-.657-14.594s-7.561-7.115-12.76-7.115h-45v-45c0-6.957-4.783-13-11.554-14.599-6.774-1.599-13.751 1.668-16.863 7.89l-60 120c-2.325 4.65-2.076 10.172.657 14.594s7.561 7.114 12.76 7.114h45zm-20.73-75 21.021-42.042c1.373 6.868 7.437 12.042 14.708 12.042h35.729l-21.021 42.042c-1.372-6.868-7.435-12.042-14.707-12.042z"/></g></svg>