<svg xmlns="http://www.w3.org/2000/svg" width="1232" height="413" viewBox="0 0 1232 413">
  <metadata><?xpacket begin="﻿" id="W5M0MpCehiHzreSzNTczkc9d"?>
<x:xmpmeta xmlns:x="adobe:ns:meta/" x:xmptk="Adobe XMP Core 5.6-c138 79.159824, 2016/09/14-01:09:01        ">
   <rdf:RDF xmlns:rdf="http://www.w3.org/1999/02/22-rdf-syntax-ns#">
      <rdf:Description rdf:about=""/>
   </rdf:RDF>
</x:xmpmeta>
                                                                                                    
                                                                                                    
                                                                                                    
                                                                                                    
                                                                                                    
                                                                                                    
                                                                                                    
                                                                                                    
                                                                                                    
                                                                                                    
                                                                                                    
                                                                                                    
                                                                                                    
                                                                                                    
                                                                                                    
                                                                                                    
                                                                                                    
                                                                                                    
                                                                                                    
                                                                                                    
                           
<?xpacket end="w"?></metadata>
<defs>
    <style>
      .cls-1 {
        fill: #222;
      }

      .cls-1, .cls-2 {
        fill-rule: evenodd;
      }

      .cls-2 {
        fill: #ff4a17;
      }
    </style>
  </defs>
  <path id="enray" class="cls-1" d="M492.814,288.739a24.285,24.285,0,0,0-7.8,1.522q-4.411,1.521-9.157,3.55a169.945,169.945,0,0,1-17.3,6.425,60.654,60.654,0,0,1-17.637,2.367q-18.315,0-28.15-8.961t-12.21-28.911h94.965q6.44,0,10.006-3.889t3.561-11.328q0-24.68-9.5-43.114A68.23,68.23,0,0,0,472.973,178q-17.13-9.97-39.852-9.975-23.744,0-42.395,10.99a76.942,76.942,0,0,0-29.168,30.6q-10.516,19.615-10.514,44.974,0,26.376,10.853,45.819a73.456,73.456,0,0,0,31.034,29.927q20.175,10.485,47.313,10.482a114.847,114.847,0,0,0,28.15-3.888,121.567,121.567,0,0,0,26.794-9.976,27.383,27.383,0,0,0,9.5-8.285,18.357,18.357,0,0,0,3.392-10.651q0-8.45-4.24-13.864a13.374,13.374,0,0,0-11.023-5.411h0Zm-58.336-85.552q14.579,0,22.554,9.13t8.988,27.052H400.562q1.693-17.578,10.514-26.883t23.4-9.3h0ZM644.417,168.02q-17.64,0-31.712,7.1a58.3,58.3,0,0,0-22.894,20.627v-4.734a21.135,21.135,0,0,0-6.613-16.062q-6.615-6.254-17.128-6.256-11.535,0-18.824,6.425t-7.292,16.907v124.1q0,11.16,6.953,17.584t18.824,6.425q11.868,0,18.654-6.425t6.783-17.584V245.118q0-16.9,9.666-27.052t25.607-10.145q13.227,0,19.5,7.778t6.274,24.685v75.745q0,11.16,6.784,17.584t18.654,6.425q11.868,0,18.823-6.425t6.953-17.584V238.017q0-35.166-14.584-52.582t-44.43-17.415h0Zm196.71,0.676-4.749.338a57.442,57.442,0,0,0-26.963,8.792,47.047,47.047,0,0,0-18.485,22.318v-9.13q0-10.478-6.783-16.4T767.189,168.7a27.521,27.521,0,0,0-17.976,6.087q-7.464,6.087-7.461,17.245v124.1q0,11.841,7.292,17.922t18.484,6.087q10.851,0,18.145-6.087t7.292-17.922V251.543q0-15.891,8.31-26.038t26.963-12.173l10.175-1.015q13.9-1.347,19.333-6.763t5.426-16.569q0-10.478-5.935-15.724t-16.11-4.565h0Zm111.579-.676a158.765,158.765,0,0,0-33.746,3.719q-17.132,3.726-29,10.145-6.789,3.725-9.836,8.116a19.13,19.13,0,0,0-3.052,11.158q0,8.457,4.409,13.7a14.7,14.7,0,0,0,11.871,5.241q5.421,0,13.227-3.72,27.472-10.144,42.056-10.144t20.859,6.425q6.272,6.428,6.275,20.627v6.086h-8.819q-35.954,0-56.64,4.734T880.3,259.32q-9.332,10.485-9.327,28.743a48.317,48.317,0,0,0,7.97,27.052,53.674,53.674,0,0,0,21.707,18.936,68.556,68.556,0,0,0,30.694,6.763q15.938,0,27.812-7.1A39.853,39.853,0,0,0,976.109,314.1v2.367q0,10.487,6.613,17.077t17.468,6.594q11.52,0,17.97-6.256t6.45-17.415V240.046q0-36.52-17.64-54.273T952.706,168.02h0ZM942.532,305.647a22.071,22.071,0,0,1-15.772-5.918q-6.279-5.911-6.274-15.386,0-11.492,11.023-15.893t38.5-4.4h5.766V269.8q0,15.9-9.158,25.868t-24.08,9.976h0Zm234.018-122.41-41.04,91.3-42.05-91.3a24.534,24.534,0,0,0-9.16-10.652,23.512,23.512,0,0,0-12.55-3.551,28.155,28.155,0,0,0-18.15,6.425q-7.965,6.428-7.97,15.555a23.014,23.014,0,0,0,2.04,9.13l60.37,123.425L1085.65,369.9a22.34,22.34,0,0,0-2.37,10.145,18.857,18.857,0,0,0,7.12,14.878,24.8,24.8,0,0,0,16.62,6.087,22.943,22.943,0,0,0,12.21-3.551,24.473,24.473,0,0,0,9.16-10.651l91.23-186.659a20.986,20.986,0,0,0,2.38-9.468q0-8.79-7.46-15.048a26.141,26.141,0,0,0-17.3-6.256,22.894,22.894,0,0,0-12.04,3.382,21.867,21.867,0,0,0-8.65,10.483h0Z"/>
  <path id="Shape_3_copy" data-name="Shape 3 copy" class="cls-1" d="M86,252.053l99.831,87.458H75.231s-11.255.243-19.575-2.915-15.724-32.345,17.617-70.938A56.57,56.57,0,0,1,86,252.053Z"/>
  <path class="cls-1" d="M115.36,225.816l41.106-35.956L329.7,339.511H248.467Z"/>
  <path class="cls-2" d="M18.465,257.884s-3.182-20.169,44.043-66.08c0,0,143.629-133.617,175.193-151.595L80.125,65.475l32.3,30.125s-68.511,57.819-79.277,75.8C33.146,171.4,2.805,207.352,18.465,257.884Z"/>
  <path class="cls-2" d="M56.635,337.568S22.38,307.929,107.53,233.59l108.639-95.233L270,187.917,306.212,13S114.381,173.34,92.849,193.747C92.849,193.747-30.472,294.325,56.635,337.568Z"/>
</svg>
